<svg xmlns="http://www.w3.org/2000/svg" xmlns:xlink="http://www.w3.org/1999/xlink" width="2000" zoomAndPan="magnify" viewBox="0 0 1500 1499.999933" height="2000" preserveAspectRatio="xMidYMid meet" version="1.0"><defs><g/><clipPath id="fc1ddc7374"><path d="M 396.070312 829 L 868 829 L 868 955 L 396.070312 955 Z M 396.070312 829 " clip-rule="nonzero"/></clipPath><clipPath id="6681b91831"><path d="M 410 429.679688 L 1104 429.679688 L 1104 856 L 410 856 Z M 410 429.679688 " clip-rule="nonzero"/></clipPath></defs><path fill="#ff3131" d="M 703.359375 696.007812 L 752.027344 696.007812 L 752.027344 744.679688 L 703.359375 744.679688 Z M 703.359375 696.007812 " fill-opacity="1" fill-rule="nonzero"/><path fill="#ff3131" d="M 762.128906 696.007812 L 810.796875 696.007812 L 810.796875 744.679688 L 762.128906 744.679688 Z M 762.128906 696.007812 " fill-opacity="1" fill-rule="nonzero"/><path fill="#ff3131" d="M 703.359375 637.289062 L 752.027344 637.289062 L 752.027344 685.960938 L 703.359375 685.960938 Z M 703.359375 637.289062 " fill-opacity="1" fill-rule="nonzero"/><path fill="#ff3131" d="M 762.128906 637.289062 L 810.796875 637.289062 L 810.796875 685.960938 L 762.128906 685.960938 Z M 762.128906 637.289062 " fill-opacity="1" fill-rule="nonzero"/><path fill="#ff3131" d="M 1046.738281 821.828125 C 1035.394531 831.0625 1023.476562 839.296875 1011.082031 846.28125 C 998.640625 853.222656 985.8125 858.917969 972.652344 863.320312 C 959.539062 867.769531 946.09375 870.738281 932.597656 872.460938 C 905.605469 875.953125 878.46875 873.707031 852.578125 866.765625 C 850.953125 866.382812 849.371094 865.855469 847.746094 865.378906 L 842.910156 863.941406 C 841.332031 863.417969 839.753906 862.839844 838.171875 862.316406 C 836.59375 861.742188 835.015625 861.261719 833.433594 860.640625 L 828.746094 858.773438 C 827.164062 858.152344 825.585938 857.625 824.054688 856.90625 L 819.460938 854.898438 L 817.164062 853.890625 C 816.398438 853.558594 815.585938 853.125 814.820312 852.792969 C 811.707031 851.261719 808.550781 849.871094 805.4375 848.246094 L 800.75 845.851562 C 799.167969 845.085938 797.636719 844.175781 796.058594 843.363281 L 791.367188 840.875 L 786.628906 838.242188 C 785.050781 837.382812 783.472656 836.519531 781.890625 835.609375 L 777.15625 832.882812 C 770.789062 829.292969 764.375 825.5625 757.914062 821.828125 L 748.058594 816.226562 C 744.707031 814.363281 741.40625 812.496094 738.007812 810.675781 C 724.414062 803.355469 710.203125 796.222656 695.078125 790.335938 C 693.164062 789.621094 691.34375 788.804688 689.382812 788.136719 L 683.59375 786.125 C 679.765625 784.738281 675.792969 783.636719 671.867188 782.488281 L 668.898438 781.628906 L 665.980469 780.863281 C 664.019531 780.382812 662.054688 779.855469 660.09375 779.425781 C 656.167969 778.5625 652.246094 777.65625 648.226562 776.9375 C 644.253906 776.125 640.28125 775.597656 636.261719 774.925781 L 630.230469 774.160156 C 629.226562 774.066406 628.222656 773.875 627.214844 773.777344 L 624.199219 773.492188 C 622.191406 773.300781 620.179688 773.109375 618.171875 772.964844 L 612.140625 772.582031 C 610.128906 772.4375 608.121094 772.4375 606.0625 772.390625 L 603.046875 772.296875 C 602.042969 772.296875 601.039062 772.296875 600.03125 772.296875 C 598.023438 772.296875 596.011719 772.296875 593.953125 772.34375 L 587.925781 772.582031 C 585.914062 772.628906 583.90625 772.820312 581.894531 772.964844 C 579.882812 773.15625 577.875 773.253906 575.863281 773.492188 C 567.824219 774.304688 559.878906 775.644531 551.984375 777.320312 L 546.097656 778.660156 C 545.140625 778.898438 544.136719 779.136719 543.175781 779.425781 L 540.257812 780.238281 C 536.382812 781.246094 532.601562 782.488281 528.773438 783.734375 C 521.210938 786.269531 513.839844 789.285156 506.664062 792.539062 C 499.484375 795.890625 492.542969 799.621094 485.796875 803.640625 C 479.097656 807.757812 472.683594 812.257812 466.558594 817.042969 C 460.429688 821.921875 454.6875 827.140625 449.328125 832.691406 C 444.0625 838.339844 439.136719 844.226562 434.875 850.542969 C 441.144531 846.1875 447.414062 842.167969 453.875 838.480469 C 460.335938 834.84375 466.941406 831.636719 473.59375 828.671875 C 480.292969 825.800781 487.089844 823.261719 493.882812 820.964844 C 500.726562 818.765625 507.621094 816.804688 514.558594 815.175781 C 521.5 813.597656 528.484375 812.257812 535.472656 811.203125 C 542.460938 810.246094 549.398438 809.527344 556.339844 809.144531 C 570.265625 808.476562 584.097656 808.953125 597.832031 810.628906 C 604.675781 811.492188 611.519531 812.542969 618.265625 813.980469 C 621.664062 814.648438 625.015625 815.460938 628.363281 816.179688 C 631.714844 817.042969 635.066406 817.855469 638.367188 818.859375 C 641.71875 819.769531 644.972656 820.824219 648.273438 821.828125 C 649.902344 822.355469 651.527344 822.929688 653.203125 823.453125 L 655.644531 824.269531 L 658.035156 825.179688 C 661.195312 826.375 664.355469 827.476562 667.464844 828.863281 L 672.15625 830.824219 C 673.734375 831.496094 675.265625 832.261719 676.84375 832.929688 C 689.335938 838.671875 701.683594 845.421875 714.171875 852.648438 L 723.601562 858.152344 L 733.125 863.800781 C 739.539062 867.578125 746.046875 871.410156 752.699219 875.238281 C 756.050781 877.152344 759.351562 879.019531 762.796875 880.882812 L 767.917969 883.660156 L 773.132812 886.386719 C 774.90625 887.296875 776.582031 888.207031 778.398438 889.066406 L 783.757812 891.652344 C 787.300781 893.421875 791.03125 895.050781 794.671875 896.675781 C 795.578125 897.058594 796.488281 897.492188 797.445312 897.875 L 800.316406 899.023438 L 806.0625 901.320312 C 807.976562 902.132812 809.9375 902.753906 811.851562 903.425781 L 817.691406 905.433594 C 819.652344 906.058594 821.664062 906.632812 823.625 907.207031 C 825.585938 907.78125 827.597656 908.402344 829.558594 908.929688 L 835.589844 910.414062 C 837.597656 910.890625 839.609375 911.417969 841.617188 911.800781 C 849.707031 913.425781 857.890625 914.816406 866.121094 915.535156 L 872.296875 916.109375 C 874.355469 916.203125 876.410156 916.300781 878.46875 916.394531 C 882.585938 916.632812 886.75 916.539062 890.863281 916.539062 C 891.917969 916.539062 892.921875 916.539062 893.976562 916.492188 L 897.085938 916.347656 L 903.257812 916.011719 C 905.316406 915.867188 907.375 915.628906 909.433594 915.4375 L 912.496094 915.152344 C 913.5 915.054688 914.554688 914.960938 915.558594 914.769531 L 921.636719 913.859375 L 924.699219 913.378906 L 927.714844 912.757812 L 933.746094 911.511719 C 934.75 911.320312 935.753906 911.035156 936.761719 910.796875 L 939.726562 910.03125 C 941.691406 909.503906 943.699219 909.074219 945.660156 908.5 L 951.5 906.679688 L 954.417969 905.769531 L 957.292969 904.765625 L 963.035156 902.707031 C 963.992188 902.371094 964.949219 901.988281 965.859375 901.558594 L 968.679688 900.363281 C 970.546875 899.546875 972.414062 898.832031 974.28125 897.96875 L 979.785156 895.335938 L 982.511719 893.996094 C 983.421875 893.566406 984.28125 893.039062 985.191406 892.5625 C 999.5 885.046875 1012.804688 875.953125 1024.769531 865.570312 C 1036.734375 855.136719 1047.359375 843.460938 1056.40625 830.824219 C 1065.496094 818.238281 1073.105469 804.789062 1078.800781 790.71875 C 1068.800781 802.207031 1058.078125 812.589844 1046.738281 821.828125 Z M 1046.738281 821.828125 " fill-opacity="1" fill-rule="nonzero"/><g clip-path="url(#fc1ddc7374)"><path fill="#00bf63" d="M 867.222656 945.589844 C 827.929688 951.042969 780.792969 924.003906 728.867188 893.664062 C 635.351562 839.007812 523.84375 777.558594 396.636719 903.953125 C 396.398438 904.191406 396.683594 904.574219 396.972656 904.382812 C 417.980469 891.222656 441.433594 881.21875 464.929688 873.609375 C 492.925781 864.566406 522.40625 859.253906 551.886719 860.160156 C 588.117188 861.261719 618.21875 873.417969 649.46875 890.742188 C 702.019531 919.792969 759.78125 951.664062 821.328125 954.679688 C 833.433594 955.253906 846.117188 954.632812 857.699219 950.660156 C 860.140625 949.800781 865.261719 947.070312 867.320312 945.921875 C 867.558594 945.828125 867.460938 945.589844 867.222656 945.589844 Z M 867.222656 945.589844 " fill-opacity="1" fill-rule="nonzero"/></g><g clip-path="url(#6681b91831)"><path fill="#00bf63" d="M 529.539062 669.59375 L 529.539062 766.886719 C 533.128906 765.738281 536.71875 764.542969 540.355469 763.585938 L 543.273438 762.769531 C 544.230469 762.484375 545.234375 762.246094 546.191406 762.003906 L 552.078125 760.664062 C 559.929688 758.992188 567.921875 757.652344 575.960938 756.835938 C 577.636719 756.644531 579.261719 756.5 580.9375 756.40625 L 580.9375 630.0625 L 757.101562 494.480469 L 933.265625 630.0625 L 933.265625 855.664062 C 946.523438 853.941406 959.78125 851.019531 972.652344 846.617188 C 976.671875 845.277344 980.644531 843.792969 984.617188 842.214844 L 984.617188 669.59375 L 1019.363281 696.34375 L 1103.59375 696.34375 L 939.152344 569.808594 L 939.152344 595.414062 L 929.917969 595.414062 L 929.917969 482.945312 L 868.277344 482.945312 L 868.277344 515.25 L 757.101562 429.679688 L 410.613281 696.34375 L 494.839844 696.34375 Z M 529.539062 669.59375 " fill-opacity="1" fill-rule="nonzero"/></g><g fill="#ffffff" fill-opacity="1"><g transform="translate(644.008569, 619.162655)"><g><path d="M 15.890625 -0.171875 C 12.085938 -0.171875 9.191406 -0.929688 7.203125 -2.453125 C 5.210938 -3.972656 4.21875 -6.335938 4.21875 -9.546875 L 4.21875 -22.5625 L 7.421875 -22.5625 L 7.421875 -9.4375 C 7.421875 -7.269531 8.101562 -5.640625 9.46875 -4.546875 C 10.832031 -3.460938 12.960938 -2.921875 15.859375 -2.921875 C 17.210938 -2.921875 18.585938 -3.070312 19.984375 -3.375 C 21.378906 -3.6875 22.601562 -4.175781 23.65625 -4.84375 C 24.050781 -5.113281 24.410156 -5.398438 24.734375 -5.703125 C 25.054688 -6.015625 25.335938 -6.347656 25.578125 -6.703125 C 25.828125 -7.066406 26.015625 -7.460938 26.140625 -7.890625 C 26.265625 -8.316406 26.328125 -8.769531 26.328125 -9.25 C 26.328125 -10.488281 25.835938 -11.425781 24.859375 -12.0625 C 23.890625 -12.695312 22.175781 -13.015625 19.71875 -13.015625 C 18.644531 -13.015625 17.625 -12.976562 16.65625 -12.90625 C 15.695312 -12.84375 14.71875 -12.738281 13.71875 -12.59375 L 14 -15.265625 C 14.988281 -15.410156 15.925781 -15.519531 16.8125 -15.59375 C 17.707031 -15.664062 18.65625 -15.703125 19.65625 -15.703125 C 23.070312 -15.703125 25.578125 -15.15625 27.171875 -14.0625 C 28.765625 -12.96875 29.5625 -11.347656 29.5625 -9.203125 C 29.5625 -8.566406 29.492188 -7.96875 29.359375 -7.40625 C 29.222656 -6.84375 29.03125 -6.3125 28.78125 -5.8125 C 28.539062 -5.3125 28.238281 -4.847656 27.875 -4.421875 C 27.519531 -3.992188 27.117188 -3.597656 26.671875 -3.234375 C 25.390625 -2.210938 23.796875 -1.445312 21.890625 -0.9375 C 19.992188 -0.425781 17.992188 -0.171875 15.890625 -0.171875 Z M -1.5 -21.578125 L -1.71875 -24.109375 L 32.671875 -24.109375 L 32.890625 -21.578125 Z M -1.5 -21.578125 "/></g></g></g><g fill="#ffffff" fill-opacity="1"><g transform="translate(676.304583, 619.162655)"><g><path d="M 4.828125 0 L 4.828125 -22.15625 L 8 -22.15625 L 8 0 Z M -0.78125 -21.578125 L -1 -24.109375 L 7.84375 -24.109375 L 7.84375 -21.578125 Z M 6.78125 -23.078125 L 8 -23.078125 L 8 -16.5 L 6.78125 -16.5 Z M 6.78125 -21.578125 L 6.78125 -24.109375 L 13.609375 -24.109375 L 13.828125 -21.578125 Z M 6.78125 -21.578125 "/></g></g></g><g fill="#ffffff" fill-opacity="1"><g transform="translate(688.943013, 619.162655)"><g><path d="M 23.328125 0.015625 L 3.46875 -6.1875 L 3.46875 -13.953125 C 5.65625 -14.671875 7.90625 -15.320312 10.21875 -15.90625 C 12.539062 -16.5 14.929688 -17.035156 17.390625 -17.515625 C 19.847656 -17.992188 22.378906 -18.398438 24.984375 -18.734375 L 25.359375 -15.984375 C 23.097656 -15.671875 20.835938 -15.300781 18.578125 -14.875 C 16.316406 -14.457031 14.066406 -13.976562 11.828125 -13.4375 C 9.597656 -12.90625 7.394531 -12.296875 5.21875 -11.609375 L 6.671875 -12.859375 L 6.671875 -6.765625 L 5.25 -8.53125 L 23.25 -2.78125 L 23.046875 -1.796875 L 22.875 -5.203125 L 22.875 -17.390625 L 22.953125 -17.859375 L 22.953125 -22.15625 L 25.984375 -22.15625 L 25.984375 -17.8125 L 26.046875 -17.359375 L 26.046875 0.015625 Z M 30.328125 -5.5 L 30.015625 -8.25 C 30.421875 -8.207031 30.84375 -8.175781 31.28125 -8.15625 C 31.71875 -8.132812 32.128906 -8.125 32.515625 -8.125 C 34.554688 -8.125 36.046875 -8.375 36.984375 -8.875 C 37.921875 -9.382812 38.390625 -10.210938 38.390625 -11.359375 L 38.390625 -11.453125 C 38.390625 -12.609375 37.820312 -13.488281 36.6875 -14.09375 C 35.550781 -14.695312 33.6875 -15.125 31.09375 -15.375 L 24.859375 -15.96875 L 24.90625 -18.640625 L 30.78125 -18.0625 C 33.394531 -17.820312 35.492188 -17.4375 37.078125 -16.90625 C 38.660156 -16.375 39.8125 -15.660156 40.53125 -14.765625 C 41.25 -13.867188 41.609375 -12.738281 41.609375 -11.375 L 41.609375 -11.28125 C 41.609375 -9.226562 40.878906 -7.734375 39.421875 -6.796875 C 37.972656 -5.859375 35.6875 -5.390625 32.5625 -5.390625 C 32.195312 -5.390625 31.820312 -5.398438 31.4375 -5.421875 C 31.0625 -5.453125 30.691406 -5.476562 30.328125 -5.5 Z M -0.46875 -21.578125 L -0.6875 -24.109375 L 44.875 -24.109375 L 45.09375 -21.578125 Z M 24.765625 -23.078125 L 25.984375 -23.078125 L 25.984375 -16.5 L 24.765625 -16.5 Z M 24.765625 -21.578125 L 24.765625 -24.109375 L 31.59375 -24.109375 L 31.8125 -21.578125 Z M 24.765625 -21.578125 "/></g></g></g><g fill="#ffffff" fill-opacity="1"><g transform="translate(732.931054, 619.162655)"><g><path d="M 4.828125 0 L 4.828125 -22.15625 L 8 -22.15625 L 8 0 Z M -0.78125 -21.578125 L -1 -24.109375 L 7.84375 -24.109375 L 7.84375 -21.578125 Z M 6.78125 -23.078125 L 8 -23.078125 L 8 -16.5 L 6.78125 -16.5 Z M 6.78125 -21.578125 L 6.78125 -24.109375 L 13.609375 -24.109375 L 13.828125 -21.578125 Z M 6.78125 -21.578125 "/></g></g></g><g fill="#ffffff" fill-opacity="1"><g transform="translate(745.569484, 619.162655)"><g><path d="M 3 -9.015625 L 3 -11.71875 L 17.75 -11.71875 L 17.75 -9.015625 Z M 3 -9.015625 "/></g></g></g><g fill="#ffffff" fill-opacity="1"><g transform="translate(766.311498, 619.162655)"><g><path d="M -0.46875 -21.578125 L -0.6875 -24.109375 L 27.40625 -24.109375 L 27.40625 -21.578125 Z M 24.671875 0.015625 L 3.46875 -6.171875 L 3.46875 -13.875 C 7.039062 -14.96875 10.722656 -15.914062 14.515625 -16.71875 C 18.316406 -17.53125 22.253906 -18.207031 26.328125 -18.75 L 26.546875 -15.9375 C 24.117188 -15.601562 21.6875 -15.21875 19.25 -14.78125 C 16.8125 -14.351562 14.410156 -13.859375 12.046875 -13.296875 C 9.691406 -12.742188 7.425781 -12.117188 5.25 -11.421875 L 6.640625 -12.71875 L 6.640625 -6.828125 L 5.25 -8.453125 L 24.609375 -2.765625 L 24.390625 -1.796875 L 24.21875 -5.203125 L 24.21875 -22.15625 L 27.390625 -22.15625 L 27.390625 0.015625 Z M 26.171875 -23.078125 L 27.390625 -23.078125 L 27.390625 -16.5 L 26.171875 -16.5 Z M 26.171875 -21.578125 L 26.171875 -24.109375 L 32.984375 -24.109375 L 33.203125 -21.578125 Z M 26.171875 -21.578125 "/></g></g></g><g fill="#ffffff" fill-opacity="1"><g transform="translate(798.351199, 619.162655)"><g><path d="M 4.828125 0 L 4.828125 -22.15625 L 8 -22.15625 L 8 0 Z M -0.78125 -21.578125 L -1 -24.109375 L 7.84375 -24.109375 L 7.84375 -21.578125 Z M 6.78125 -23.078125 L 8 -23.078125 L 8 -16.5 L 6.78125 -16.5 Z M 6.78125 -21.578125 L 6.78125 -24.109375 L 13.609375 -24.109375 L 13.828125 -21.578125 Z M 6.78125 -21.578125 "/></g></g></g><g fill="#ffffff" fill-opacity="1"><g transform="translate(810.989629, 619.162655)"><g><path d="M 24.53125 0 L 24.53125 -12.640625 L 24.609375 -13.9375 L 24.53125 -17.4375 L 24.53125 -22.15625 L 27.703125 -22.15625 L 27.703125 0 Z M -2.703125 -21.578125 L -2.921875 -24.109375 L 27.5 -24.109375 L 27.5 -21.578125 Z M 25.3125 -12.140625 C 25.039062 -12.210938 24.726562 -12.253906 24.375 -12.265625 C 24.019531 -12.285156 23.671875 -12.296875 23.328125 -12.296875 C 21.609375 -12.296875 20.0625 -11.953125 18.6875 -11.265625 C 17.3125 -10.578125 15.929688 -9.765625 14.546875 -8.828125 C 13.472656 -8.117188 12.367188 -7.410156 11.234375 -6.703125 C 10.109375 -6.003906 8.867188 -5.425781 7.515625 -4.96875 C 6.171875 -4.507812 4.613281 -4.28125 2.84375 -4.28125 L 1.296875 -4.28125 L 1.296875 -7 L 2.34375 -7 C 3.945312 -7 5.40625 -7.253906 6.71875 -7.765625 C 8.039062 -8.273438 9.09375 -9.007812 9.875 -9.96875 C 10.65625 -10.9375 11.046875 -12.101562 11.046875 -13.46875 L 11.046875 -13.59375 C 11.046875 -14.9375 10.6875 -16.085938 9.96875 -17.046875 C 9.257812 -18.015625 8.300781 -18.785156 7.09375 -19.359375 C 5.894531 -19.929688 4.554688 -20.300781 3.078125 -20.46875 L 3.078125 -21.84375 L 4.734375 -22.28125 C 6.492188 -22.164062 8.082031 -21.753906 9.5 -21.046875 C 10.925781 -20.347656 12.046875 -19.390625 12.859375 -18.171875 C 13.679688 -16.953125 14.09375 -15.519531 14.09375 -13.875 L 14.09375 -13.765625 C 14.09375 -12.316406 13.675781 -11.003906 12.84375 -9.828125 C 12.019531 -8.648438 10.609375 -7.613281 8.609375 -6.71875 L 9.328125 -8.5625 C 9.953125 -8.96875 10.625 -9.425781 11.34375 -9.9375 C 12.0625 -10.445312 12.8125 -10.972656 13.59375 -11.515625 C 15.019531 -12.484375 16.5 -13.316406 18.03125 -14.015625 C 19.570312 -14.710938 21.28125 -15.0625 23.15625 -15.0625 C 23.53125 -15.0625 23.890625 -15.046875 24.234375 -15.015625 C 24.585938 -14.984375 24.957031 -14.9375 25.34375 -14.875 Z M 26.484375 -23.078125 L 27.703125 -23.078125 L 27.703125 -16.5 L 26.484375 -16.5 Z M 26.484375 -21.578125 L 26.484375 -24.109375 L 33.3125 -24.109375 L 33.515625 -21.578125 Z M 26.484375 -21.578125 "/></g></g></g><g fill="#ffffff" fill-opacity="1"><g transform="translate(843.344809, 619.162655)"><g><path d="M 4.828125 0 L 4.828125 -22.15625 L 8 -22.15625 L 8 0 Z M -0.78125 -21.578125 L -1 -24.109375 L 7.84375 -24.109375 L 7.84375 -21.578125 Z M 6.78125 -23.078125 L 8 -23.078125 L 8 -16.5 L 6.78125 -16.5 Z M 6.78125 -21.578125 L 6.78125 -24.109375 L 13.609375 -24.109375 L 13.828125 -21.578125 Z M 6.78125 -21.578125 "/></g></g></g></svg>